<?xml version="1.0" standalone="no"?>
<!DOCTYPE svg PUBLIC "-//W3C//DTD SVG 20010904//EN"
 "http://www.w3.org/TR/2001/REC-SVG-20010904/DTD/svg10.dtd">
<svg version="1.0" xmlns="http://www.w3.org/2000/svg"
 width="306.000000pt" height="306.000000pt" viewBox="0 0 306.000000 306.000000"
 preserveAspectRatio="xMidYMid meet">
<metadata>
Created by potrace 1.11, written by Peter Selinger 2001-2013
</metadata>
<g transform="translate(0.000000,306.000000) scale(0.100000,-0.100000)"
fill="#000000" stroke="none">
<path d="M1706 3036 c-15 -9 -33 -16 -39 -16 -6 0 -18 -6 -26 -14 -9 -7 -54
-26 -101 -41 -47 -15 -105 -38 -131 -51 -25 -12 -63 -26 -85 -30 -45 -8 -66
-17 -219 -86 -124 -57 -217 -125 -415 -307 -240 -220 -360 -349 -360 -385 0
-13 -11 -44 -25 -70 -14 -26 -25 -58 -25 -72 0 -14 -7 -38 -15 -55 -19 -36
-20 -74 -6 -241 10 -126 41 -237 74 -263 7 -5 17 -23 22 -40 11 -33 71 -78
127 -94 20 -7 50 -22 65 -35 54 -44 178 -123 221 -139 96 -38 231 -7 381 86
70 44 91 50 91 26 0 -6 47 -106 104 -222 106 -219 112 -232 141 -330 17 -58
85 -191 93 -183 2 3 -3 27 -12 53 -9 27 -25 96 -37 154 -11 57 -39 165 -64
239 -34 106 -85 294 -85 315 0 2 10 1 23 -2 84 -19 96 -25 103 -45 4 -12 33
-71 66 -130 44 -79 65 -108 79 -108 10 0 19 2 19 5 0 3 -12 57 -26 120 -14 63
-24 121 -21 129 3 8 19 17 35 21 61 13 217 109 206 126 -9 15 -77 3 -134 -23
-55 -25 -151 -28 -201 -5 -46 21 -153 64 -214 87 -46 17 -52 17 -77 2 -16 -9
-30 -24 -33 -33 -8 -24 -132 -138 -164 -151 -14 -5 -69 -14 -121 -18 -73 -7
-102 -5 -125 5 -16 8 -47 21 -68 29 -21 8 -76 43 -122 77 -47 34 -100 65 -117
68 -25 5 -39 18 -65 61 -38 65 -41 104 -13 179 30 78 24 89 -28 53 -24 -16
-52 -41 -62 -56 -36 -56 -38 10 -4 206 14 84 52 190 74 203 5 3 19 23 29 43
25 48 282 318 374 394 178 147 600 351 861 418 102 26 228 26 327 1 99 -26
425 -147 448 -167 2 -2 -16 -23 -40 -47 -90 -88 -138 -148 -144 -179 -4 -18
-14 -45 -21 -60 -41 -81 -49 -94 -65 -110 -27 -26 -52 -128 -31 -128 4 0 16
22 28 48 18 41 104 177 210 331 64 94 129 131 228 131 38 0 96 -41 96 -67 0
-9 7 -21 15 -27 19 -14 22 -92 6 -181 -7 -45 -9 -95 -4 -140 l8 -70 23 38 c12
21 22 53 22 71 0 17 4 36 10 42 5 5 13 38 16 73 6 50 2 78 -16 139 -12 42 -27
87 -33 99 -17 36 -79 73 -135 80 -48 5 -52 4 -61 -18 l-10 -24 0 28 c-1 29
-11 33 -43 16 -15 -8 -37 -8 -82 1 -57 11 -67 18 -146 93 -130 125 -244 173
-430 183 -75 4 -101 2 -124 -10z"/>
<path d="M1760 2696 c-25 -67 -12 -97 61 -142 63 -38 80 -38 132 -2 16 11 27
29 27 42 0 42 -97 110 -174 123 -32 5 -37 3 -46 -21z"/>
<path d="M2426 2443 c-4 -10 1 -24 12 -36 16 -16 22 -17 40 -6 18 12 19 14 5
36 -18 27 -48 30 -57 6z"/>
<path d="M2353 2288 c-34 -17 -28 -32 25 -61 39 -21 50 -23 64 -13 16 12 16
14 1 37 -32 48 -51 56 -90 37z"/>
<path d="M2659 2165 c-33 -42 -50 -55 -70 -55 -36 0 -92 -63 -114 -129 -16
-49 -16 -55 1 -117 13 -50 27 -76 62 -112 86 -91 95 -107 87 -153 -6 -37 -4
-44 26 -75 18 -19 39 -34 46 -34 7 0 13 -4 13 -10 0 -5 -3 -10 -7 -10 -5 0 -9
-18 -10 -40 0 -23 -8 -56 -17 -75 -10 -21 -15 -54 -14 -87 2 -29 0 -62 -5 -73
-5 -16 5 -37 43 -90 49 -68 69 -110 90 -190 5 -22 14 -47 19 -55 21 -32 21 3
1 96 -15 70 -29 109 -50 138 -20 26 -30 52 -30 75 0 19 -5 75 -12 125 -8 68
-8 91 0 94 19 6 14 89 -8 140 -11 26 -26 80 -34 121 -10 52 -24 88 -50 125
-19 28 -38 70 -42 93 -9 56 14 132 43 146 12 5 26 21 31 36 22 59 52 164 49
167 -2 2 -24 -21 -48 -51z"/>
<path d="M1552 2109 c-128 -44 -193 -92 -212 -158 -34 -121 136 -133 286 -20
71 54 81 77 60 132 -29 77 -38 80 -134 46z"/>
<path d="M700 2080 c-122 -26 -168 -85 -123 -160 14 -24 78 -70 96 -70 4 0 24
17 45 38 21 20 62 56 90 80 51 42 63 69 44 100 -11 17 -96 23 -152 12z"/>
<path d="M2142 1644 c-12 -8 -39 -17 -60 -18 -61 -5 -115 -24 -165 -57 -49
-32 -57 -48 -33 -68 18 -15 89 2 126 31 28 22 85 48 106 48 21 0 17 -70 -6
-105 -11 -16 -27 -40 -36 -52 -14 -20 -14 -23 6 -43 29 -29 47 -16 81 66 42
98 53 161 34 191 -18 27 -23 28 -53 7z"/>
<path d="M2190 1239 c0 -21 7 -42 15 -49 13 -11 15 -8 15 17 0 16 -7 38 -15
49 -13 18 -14 17 -15 -17z"/>
<path d="M2476 1205 c-3 -8 3 -19 13 -24 21 -12 31 -5 31 21 0 22 -35 25 -44
3z"/>
<path d="M2196 1113 c-4 -9 -9 -44 -12 -77 -3 -34 -12 -84 -21 -112 -16 -50
-16 -52 6 -83 13 -17 26 -55 30 -84 9 -67 13 -73 70 -101 26 -14 53 -31 59
-39 24 -29 54 -134 57 -202 1 -41 10 -84 20 -103 9 -18 15 -35 14 -36 -15 -12
-162 -66 -179 -66 -12 0 -29 -4 -39 -10 -18 -9 -401 -32 -531 -32 -41 1 -91 9
-135 24 l-70 23 -37 75 c-81 164 -169 372 -211 500 -58 180 -61 190 -43 190
22 0 2 51 -34 85 -22 21 -33 25 -42 17 -7 -5 -24 -12 -38 -14 -21 -2 -25 -8
-23 -33 2 -42 66 -255 85 -285 9 -14 26 -50 38 -80 11 -30 57 -138 100 -240
44 -102 84 -206 88 -232 11 -56 40 -85 128 -128 96 -47 170 -62 282 -57 53 2
122 11 152 20 30 9 107 25 170 37 63 11 125 27 137 35 12 8 28 15 35 15 7 0
33 11 58 25 63 35 167 85 178 85 5 0 17 8 26 19 16 18 16 19 -9 25 -24 6 -25
9 -25 90 0 113 -37 270 -75 320 -16 21 -42 43 -59 50 -17 7 -48 31 -68 51 -36
36 -38 42 -38 104 0 36 -7 89 -15 116 -10 30 -13 65 -9 88 6 38 -8 52 -20 20z"/>
<path d="M2505 887 c-11 -7 -21 -13 -23 -14 -2 -1 4 -13 13 -27 10 -14 21 -24
25 -21 5 3 11 1 15 -5 9 -15 51 -12 64 4 10 11 9 21 -2 42 -16 30 -59 40 -92
21z"/>
<path d="M1677 829 c8 -16 17 -28 19 -26 7 7 -15 57 -25 57 -5 0 -3 -14 6 -31z"/>
<path d="M2676 785 c-11 -8 -29 -15 -39 -15 -25 0 -84 -36 -96 -59 -5 -9 -6
-48 -1 -88 6 -59 13 -79 39 -111 28 -36 30 -42 20 -73 -7 -19 -21 -44 -32 -57
-22 -24 -48 -88 -39 -97 13 -13 30 -3 36 21 4 14 14 38 24 52 43 66 58 160 32
197 -14 19 -19 88 -8 109 6 12 23 35 39 51 15 17 32 42 38 58 12 31 12 31 -13
12z"/>
</g>
</svg>
