<?xml version="1.0" standalone="no"?>
<!DOCTYPE svg PUBLIC "-//W3C//DTD SVG 20010904//EN"
 "http://www.w3.org/TR/2001/REC-SVG-20010904/DTD/svg10.dtd">
<svg version="1.0" xmlns="http://www.w3.org/2000/svg"
 width="306.000000pt" height="306.000000pt" viewBox="0 0 306.000000 306.000000"
 preserveAspectRatio="xMidYMid meet">
<metadata>
Created by potrace 1.11, written by Peter Selinger 2001-2013
</metadata>
<g transform="translate(0.000000,306.000000) scale(0.100000,-0.100000)"
fill="#000000" stroke="none">
<path d="M1676 3021 c-33 -17 -96 -42 -140 -57 -45 -14 -102 -37 -127 -50 -26
-13 -57 -25 -70 -28 -73 -15 -78 -17 -230 -86 -157 -72 -318 -201 -604 -485
-138 -137 -175 -181 -175 -209 0 -11 -11 -42 -25 -68 -14 -26 -25 -59 -25 -73
0 -14 -7 -40 -16 -57 -9 -17 -16 -50 -16 -72 0 -75 16 -248 27 -305 7 -36 58
-140 66 -135 5 3 9 -3 9 -14 0 -30 33 -65 86 -90 86 -41 111 -56 193 -115 100
-71 169 -99 238 -98 64 1 196 48 266 94 96 63 92 63 116 7 12 -28 34 -72 49
-98 15 -26 43 -81 61 -122 19 -41 52 -112 73 -157 21 -45 38 -86 38 -91 0 -21
34 -118 47 -133 7 -8 13 -21 13 -28 0 -7 11 -29 25 -49 29 -43 30 -42 9 28 -9
29 -17 61 -19 69 -2 9 -10 54 -19 101 -9 47 -35 144 -59 215 -24 72 -52 166
-62 210 -9 44 -22 88 -27 98 -8 16 -7 18 11 12 11 -3 33 -8 48 -11 50 -9 62
-15 69 -37 4 -12 33 -70 66 -129 44 -79 65 -108 79 -108 24 0 24 5 -6 120 -31
120 -32 150 -4 150 29 0 125 47 181 89 79 58 42 68 -87 22 -87 -30 -152 -32
-210 -6 -43 20 -152 64 -210 85 -46 17 -52 17 -77 2 -16 -9 -31 -24 -34 -34
-7 -23 -132 -138 -164 -150 -14 -5 -68 -14 -120 -18 -73 -7 -102 -5 -125 5
-16 8 -46 20 -66 28 -20 8 -80 46 -133 83 -52 38 -105 69 -117 69 -16 0 -32
15 -55 55 -37 61 -43 113 -20 158 19 37 31 102 19 102 -6 0 -22 -11 -37 -25
-15 -14 -30 -25 -34 -25 -4 0 -16 -13 -27 -29 -10 -16 -23 -27 -28 -24 -10 6
-2 100 19 225 15 87 56 198 72 198 5 0 17 18 27 39 9 22 77 102 150 178 73 76
131 141 129 145 -3 5 -1 8 3 8 5 0 44 29 88 66 94 77 198 140 379 231 141 71
409 177 470 187 21 4 42 9 47 12 34 21 192 20 284 -1 92 -22 439 -150 464
-171 2 -2 -16 -23 -40 -47 -85 -83 -137 -146 -144 -174 -13 -53 -60 -152 -80
-168 -21 -18 -39 -59 -42 -100 -3 -46 -8 -53 83 100 36 61 83 133 103 160 21
28 44 61 51 75 7 14 34 46 59 71 47 47 105 69 180 69 30 0 91 -45 91 -67 0 -6
7 -18 15 -26 19 -19 21 -95 6 -182 -9 -48 -10 -92 -4 -140 l8 -70 22 38 c13
21 24 52 25 70 1 18 6 37 10 44 5 6 12 42 14 80 4 56 0 84 -24 157 -25 78 -33
92 -68 118 -28 20 -57 31 -92 35 -48 5 -53 3 -61 -18 -10 -24 -10 -24 -10 4
-1 25 -4 27 -23 21 -35 -12 -69 -12 -120 0 -39 9 -62 25 -130 91 -97 94 -191
145 -312 169 -124 25 -200 21 -270 -13z"/>
<path d="M1762 2704 c-14 -26 -17 -65 -8 -91 9 -28 100 -86 136 -86 37 0 90
39 90 67 0 41 -95 110 -167 122 -34 5 -43 3 -51 -12z"/>
<path d="M2426 2444 c-7 -19 20 -54 41 -54 8 0 11 5 8 10 -3 6 1 10 10 10 14
0 14 2 -1 25 -19 28 -49 33 -58 9z"/>
<path d="M2348 2286 c-27 -20 -22 -31 30 -58 36 -20 51 -23 63 -15 30 19 -26
88 -71 87 -3 -1 -13 -7 -22 -14z"/>
<path d="M2690 2212 c0 -5 -16 -30 -36 -55 -28 -36 -43 -47 -64 -47 -37 0 -92
-62 -115 -129 -16 -49 -16 -55 0 -116 14 -49 28 -75 63 -112 86 -92 95 -108
87 -154 -6 -36 -4 -44 21 -71 16 -16 40 -35 54 -40 19 -8 21 -12 10 -17 -9 -4
-16 -22 -18 -49 -1 -23 -10 -57 -20 -75 -13 -23 -16 -43 -11 -71 3 -22 3 -54
-2 -70 -8 -26 -4 -37 20 -71 67 -94 82 -121 97 -174 24 -87 36 -113 46 -103 6
6 5 26 -2 53 -7 24 -14 59 -16 77 -5 41 -26 88 -55 123 -16 20 -22 43 -24 90
-1 35 -6 92 -10 127 -5 43 -4 62 4 62 19 0 12 85 -14 153 -13 36 -27 88 -31
117 -5 35 -18 69 -42 104 -45 65 -65 143 -46 177 7 13 13 32 14 42 0 11 9 21
20 24 20 5 50 54 50 80 0 7 9 39 20 70 23 67 23 63 10 63 -5 0 -10 -4 -10 -8z"/>
<path d="M1540 2106 c-101 -38 -149 -68 -180 -113 -25 -36 -30 -93 -11 -117
46 -55 217 -10 308 81 48 49 51 60 24 120 -29 63 -43 65 -141 29z"/>
<path d="M683 2075 c-99 -23 -135 -65 -114 -135 9 -30 22 -45 55 -65 23 -14
46 -25 49 -25 4 0 21 15 40 33 18 17 59 54 90 80 56 48 68 74 48 105 -11 18
-104 22 -168 7z"/>
<path d="M2143 1648 c-13 -6 -23 -14 -23 -17 0 -3 -22 -7 -48 -8 -54 -1 -109
-21 -164 -60 -41 -28 -47 -43 -24 -62 19 -16 90 2 131 33 46 35 104 54 114 37
11 -17 -2 -75 -23 -104 -9 -12 -23 -32 -32 -44 -14 -20 -14 -23 5 -42 36 -36
48 -23 100 108 11 29 21 64 21 77 0 12 5 26 10 29 6 4 2 18 -10 36 -23 32 -25
32 -57 17z"/>
<path d="M2190 1239 c0 -21 7 -42 15 -49 13 -11 15 -8 15 17 0 16 -7 38 -15
49 -13 18 -14 17 -15 -17z"/>
<path d="M2476 1205 c-6 -17 19 -39 34 -30 16 10 8 38 -12 41 -9 1 -19 -4 -22
-11z"/>
<path d="M2195 1113 c-4 -10 -10 -52 -15 -93 -4 -41 -14 -90 -21 -108 -11 -27
-11 -36 1 -55 29 -46 40 -76 44 -116 4 -42 28 -81 50 -81 6 0 28 -11 48 -25
29 -20 41 -38 59 -92 13 -39 23 -94 24 -128 0 -36 8 -75 19 -98 10 -21 16 -40
14 -41 -17 -12 -135 -56 -165 -62 -21 -4 -46 -11 -57 -16 -10 -6 -80 -12 -155
-14 -75 -2 -174 -7 -221 -11 -119 -9 -180 -9 -215 0 -16 4 -41 10 -54 13 -81
17 -106 45 -160 181 -11 27 -40 93 -66 148 -26 55 -56 125 -67 155 -17 49 -98
301 -98 308 0 1 6 2 14 2 21 0 7 39 -27 80 -24 28 -31 31 -50 22 -12 -6 -32
-14 -44 -17 -25 -7 -30 -34 -12 -66 6 -11 12 -28 14 -37 13 -64 50 -182 65
-207 10 -16 36 -75 58 -130 22 -55 66 -158 96 -228 31 -70 63 -155 70 -187 10
-42 23 -67 43 -85 38 -34 136 -81 208 -100 84 -21 222 -20 293 4 31 10 81 22
111 25 82 10 193 36 218 52 12 8 27 14 33 14 11 0 33 10 155 73 39 20 75 37
81 37 6 0 19 9 29 20 17 18 16 19 -9 26 -26 6 -27 7 -25 88 2 44 -3 101 -10
126 -8 25 -15 59 -18 75 -10 76 -50 138 -106 166 -42 22 -107 86 -108 106 0 7
0 41 -1 76 0 34 -6 76 -13 94 -13 32 -14 75 0 106 5 12 3 17 -8 17 -8 0 -18
-8 -22 -17z"/>
<path d="M2514 889 c-3 -6 -12 -8 -20 -5 -8 3 -14 1 -14 -5 0 -17 32 -59 40
-54 5 3 11 1 15 -5 9 -15 51 -12 64 4 20 24 -9 68 -47 72 -17 2 -34 -1 -38 -7z"/>
<path d="M1677 829 c8 -16 17 -28 19 -26 7 7 -15 57 -25 57 -5 0 -3 -14 6 -31z"/>
<path d="M2685 791 c-3 -6 -26 -16 -51 -22 -24 -6 -58 -24 -74 -39 -27 -26
-29 -32 -24 -76 11 -97 15 -110 44 -143 29 -31 30 -35 19 -70 -7 -20 -21 -45
-32 -57 -10 -11 -25 -37 -32 -57 -12 -34 -11 -38 6 -48 16 -8 19 -6 19 14 0
13 10 39 23 58 47 70 64 169 35 206 -15 19 -16 85 -2 113 6 14 22 34 34 45 24
22 54 74 47 82 -3 2 -8 0 -12 -6z"/>
</g>
</svg>
